<svg xmlns="http://www.w3.org/2000/svg" xmlns:xlink="http://www.w3.org/1999/xlink" width="40" zoomAndPan="magnify" viewBox="0 0 30 30.000001" height="40" preserveAspectRatio="xMidYMid meet" version="1.0"><defs><clipPath id="id1"><path d="M 0.484375 11.085938 L 29.515625 11.085938 L 29.515625 17.617188 L 0.484375 17.617188 Z M 0.484375 11.085938 " clip-rule="nonzero"/></clipPath></defs><g clip-path="url(#id1)"><path fill="#00d8ff" d="M 9.554688 17.632812 L 9.554688 11.65625 L 9.894531 11.65625 L 9.894531 12.597656 C 9.933594 12.554688 9.972656 12.511719 10.007812 12.464844 C 10.289062 11.902344 10.890625 11.546875 11.542969 11.554688 C 12.320312 11.535156 12.949219 11.808594 13.320312 12.464844 C 13.5625 12.878906 13.6875 13.324219 13.699219 13.796875 C 13.714844 14.269531 13.613281 14.71875 13.394531 15.140625 C 13.050781 15.878906 12.199219 16.246094 11.285156 16.109375 C 10.667969 16.0625 10.214844 15.777344 9.921875 15.253906 L 9.921875 17.628906 Z M 9.894531 13.769531 L 9.972656 14.472656 C 10.105469 15.269531 10.601562 15.742188 11.378906 15.832031 C 11.757812 15.890625 12.109375 15.828125 12.441406 15.644531 C 12.773438 15.464844 13.003906 15.203125 13.136719 14.863281 C 13.441406 14.175781 13.417969 13.398438 13.078125 12.726562 C 12.9375 12.421875 12.710938 12.191406 12.40625 12.027344 C 12.097656 11.867188 11.773438 11.8125 11.425781 11.859375 C 11.101562 11.878906 10.816406 11.988281 10.5625 12.1875 C 10.3125 12.382812 10.144531 12.632812 10.0625 12.933594 C 9.988281 13.207031 9.933594 13.488281 9.894531 13.769531 Z M 20.648438 14.582031 C 20.625 14.792969 20.558594 14.992188 20.457031 15.179688 C 20.355469 15.367188 20.222656 15.535156 20.058594 15.675781 C 19.890625 15.816406 19.707031 15.925781 19.5 16.003906 C 19.292969 16.082031 19.078125 16.125 18.855469 16.125 C 17.429688 16.195312 16.757812 15.292969 16.652344 14.25 C 16.578125 13.675781 16.667969 13.121094 16.929688 12.597656 C 17.113281 12.234375 17.390625 11.957031 17.761719 11.769531 C 18.132812 11.578125 18.53125 11.511719 18.949219 11.566406 C 19.34375 11.597656 19.695312 11.738281 20 11.984375 C 20.300781 12.234375 20.5 12.542969 20.59375 12.910156 C 20.664062 13.238281 20.71875 13.570312 20.753906 13.902344 L 17.003906 13.902344 C 16.933594 14.847656 17.46875 15.605469 18.222656 15.789062 C 19.164062 16.007812 19.96875 15.621094 20.261719 14.769531 C 20.324219 14.550781 20.441406 14.519531 20.652344 14.582031 Z M 17.003906 13.601562 L 20.355469 13.601562 C 20.332031 12.59375 19.675781 11.863281 18.785156 11.855469 C 17.777344 11.839844 17.046875 12.542969 17.003906 13.601562 Z M 21.34375 14.605469 L 21.671875 14.605469 C 21.683594 14.839844 21.757812 15.054688 21.898438 15.25 C 22.035156 15.441406 22.21875 15.589844 22.445312 15.683594 C 23.039062 15.9375 23.621094 15.925781 24.199219 15.640625 C 24.351562 15.578125 24.46875 15.476562 24.554688 15.339844 C 24.640625 15.207031 24.675781 15.058594 24.664062 14.902344 C 24.671875 14.75 24.632812 14.609375 24.542969 14.484375 C 24.453125 14.359375 24.332031 14.269531 24.183594 14.21875 C 23.820312 14.09375 23.4375 14.023438 23.066406 13.910156 C 22.683594 13.804688 22.308594 13.675781 21.945312 13.519531 C 21.351562 13.242188 21.316406 12.167969 21.988281 11.828125 C 22.335938 11.640625 22.714844 11.542969 23.113281 11.539062 C 23.515625 11.53125 23.894531 11.617188 24.25 11.796875 C 24.683594 12.023438 24.921875 12.484375 24.851562 12.953125 L 24.570312 12.953125 C 24.570312 12.9375 24.542969 12.925781 24.542969 12.914062 C 24.507812 12.058594 23.753906 11.792969 22.945312 11.867188 C 22.699219 11.890625 22.464844 11.964844 22.25 12.066406 C 21.949219 12.195312 21.816406 12.417969 21.84375 12.730469 C 21.847656 13.039062 22 13.246094 22.308594 13.351562 C 22.664062 13.476562 23.039062 13.554688 23.40625 13.652344 L 24.289062 13.871094 C 24.496094 13.9375 24.664062 14.050781 24.796875 14.214844 C 24.925781 14.378906 24.996094 14.5625 25.007812 14.769531 C 25.078125 15.222656 24.835938 15.667969 24.40625 15.871094 C 23.632812 16.289062 22.359375 16.179688 21.792969 15.652344 C 21.5 15.375 21.339844 14.996094 21.34375 14.605469 Z M 29.179688 12.953125 L 28.871094 12.953125 C 28.871094 12.914062 28.851562 12.875 28.847656 12.84375 C 28.84375 12.617188 28.765625 12.417969 28.609375 12.246094 C 28.457031 12.070312 28.261719 11.964844 28.027344 11.921875 C 27.589844 11.800781 27.15625 11.820312 26.726562 11.980469 C 26.558594 12.027344 26.421875 12.117188 26.316406 12.25 C 26.210938 12.382812 26.15625 12.53125 26.15625 12.699219 C 26.148438 12.863281 26.199219 13.011719 26.304688 13.140625 C 26.40625 13.273438 26.542969 13.355469 26.710938 13.394531 L 28.121094 13.738281 C 28.273438 13.773438 28.421875 13.816406 28.570312 13.871094 C 29.019531 14.027344 29.324219 14.421875 29.335938 14.875 C 29.34375 15.105469 29.285156 15.3125 29.152344 15.503906 C 29.023438 15.695312 28.851562 15.835938 28.628906 15.925781 C 27.9375 16.222656 27.242188 16.230469 26.542969 15.945312 C 26.265625 15.828125 26.046875 15.648438 25.890625 15.40625 C 25.730469 15.160156 25.65625 14.894531 25.671875 14.605469 L 25.972656 14.605469 C 26.085938 15.125 26.460938 15.558594 26.976562 15.765625 C 27.492188 15.96875 28.078125 15.917969 28.546875 15.628906 C 28.859375 15.476562 29.007812 15.230469 28.992188 14.894531 C 29 14.742188 28.957031 14.601562 28.867188 14.476562 C 28.777344 14.351562 28.652344 14.265625 28.503906 14.214844 C 28.140625 14.089844 27.757812 14.019531 27.386719 13.90625 C 27 13.804688 26.625 13.675781 26.257812 13.519531 C 25.679688 13.25 25.632812 12.183594 26.292969 11.84375 C 26.648438 11.648438 27.03125 11.546875 27.441406 11.542969 C 27.851562 11.539062 28.234375 11.628906 28.59375 11.820312 C 28.800781 11.9375 28.953125 12.097656 29.058594 12.300781 C 29.164062 12.507812 29.203125 12.722656 29.175781 12.949219 Z M 8.996094 16.019531 C 8.867188 16.0625 8.742188 16.0625 8.617188 16.019531 C 8.492188 15.972656 8.398438 15.894531 8.335938 15.78125 L 7.136719 14.203125 L 6.964844 13.984375 L 5.574219 15.78125 C 5.515625 15.890625 5.425781 15.96875 5.308594 16.011719 C 5.1875 16.054688 5.070312 16.058594 4.949219 16.015625 L 6.738281 13.730469 L 5.074219 11.660156 C 5.320312 11.578125 5.597656 11.667969 5.734375 11.882812 L 6.976562 13.480469 L 8.222656 11.886719 C 8.285156 11.78125 8.371094 11.707031 8.492188 11.664062 C 8.609375 11.625 8.726562 11.625 8.84375 11.667969 L 8.199219 12.484375 L 7.324219 13.570312 C 7.273438 13.613281 7.246094 13.667969 7.246094 13.734375 C 7.246094 13.800781 7.273438 13.855469 7.324219 13.898438 L 8.992188 16.019531 Z M 16.597656 11.640625 L 16.597656 11.949219 C 16.363281 11.9375 16.132812 11.96875 15.910156 12.046875 C 15.6875 12.125 15.488281 12.242188 15.320312 12.398438 C 15.148438 12.554688 15.019531 12.738281 14.929688 12.949219 C 14.84375 13.160156 14.800781 13.378906 14.808594 13.601562 C 14.808594 14.328125 14.808594 15.054688 14.808594 15.78125 L 14.808594 16.03125 L 14.480469 16.03125 L 14.480469 11.660156 L 14.804688 11.660156 L 14.804688 12.554688 C 15.207031 11.902344 15.824219 11.660156 16.601562 11.640625 Z M 0.660156 13.699219 L 0.808594 13.015625 C 1.207031 11.65625 2.839844 11.09375 3.964844 11.933594 C 4.625 12.425781 4.789062 13.121094 4.753906 13.90625 L 1.046875 13.90625 C 0.988281 15.3125 2.050781 16.15625 3.410156 15.726562 C 3.859375 15.570312 4.195312 15.214844 4.308594 14.773438 C 4.378906 14.554688 4.5 14.515625 4.714844 14.582031 C 4.636719 15.15625 4.339844 15.589844 3.816406 15.886719 C 3.402344 16.105469 2.964844 16.183594 2.496094 16.125 C 2.027344 16.070312 1.621094 15.886719 1.28125 15.578125 C 0.949219 15.226562 0.75 14.777344 0.710938 14.304688 C 0.710938 14.226562 0.683594 14.152344 0.664062 14.085938 C 0.660156 13.953125 0.660156 13.824219 0.660156 13.699219 Z M 1.054688 13.605469 L 4.40625 13.605469 C 4.382812 12.589844 3.710938 11.867188 2.8125 11.859375 C 1.8125 11.847656 1.09375 12.554688 1.050781 13.601562 Z M 1.054688 13.605469 " fill-opacity="1" fill-rule="nonzero"/></g></svg>