<svg xmlns="http://www.w3.org/2000/svg" xmlns:xlink="http://www.w3.org/1999/xlink" width="40" zoomAndPan="magnify" viewBox="0 0 30 30.000001" height="40" preserveAspectRatio="xMidYMid meet" version="1.0"><defs><clipPath id="id1"><path d="M 2.277344 0 L 27.683594 0 L 27.683594 29 L 2.277344 29 Z M 2.277344 0 " clip-rule="nonzero"/></clipPath></defs><g clip-path="url(#id1)"><path fill="#e44d26" d="M 4.585938 26.0625 L 2.269531 0.0859375 L 27.6875 0.0859375 L 25.375 26.058594 L 14.964844 28.949219 Z M 4.585938 26.0625 " fill-opacity="1" fill-rule="nonzero"/></g><path fill="#f16529" d="M 23.390625 24.40625 L 25.371094 2.207031 L 14.980469 2.207031 L 14.980469 26.742188 Z M 23.390625 24.40625 " fill-opacity="1" fill-rule="nonzero"/><path fill="#ebebeb" d="M 14.96875 5.394531 L 7 5.394531 L 7.859375 15.03125 L 14.980469 15.03125 L 14.980469 11.84375 L 10.769531 11.84375 L 10.480469 8.582031 L 14.980469 8.582031 L 14.980469 5.394531 Z M 14.980469 20.109375 L 14.964844 20.113281 L 11.421875 19.15625 L 11.199219 16.613281 L 8 16.613281 L 8.449219 21.617188 L 14.964844 23.421875 L 14.980469 23.414062 Z M 14.980469 20.109375 " fill-opacity="1" fill-rule="nonzero"/><path fill="#ffffff" d="M 14.96875 15.03125 L 18.886719 15.03125 L 18.527344 19.160156 L 14.976562 20.121094 L 14.976562 23.433594 L 21.503906 21.625 L 22.375 11.84375 L 14.980469 11.84375 Z M 22.863281 6.25 L 22.941406 5.394531 L 14.96875 5.394531 L 14.96875 8.582031 L 22.652344 8.582031 L 22.714844 7.863281 Z M 22.863281 6.25 " fill-opacity="1" fill-rule="nonzero"/></svg>