<svg xmlns="http://www.w3.org/2000/svg" xmlns:xlink="http://www.w3.org/1999/xlink" width="40" zoomAndPan="magnify" viewBox="0 0 30 30.000001" height="40" preserveAspectRatio="xMidYMid meet" version="1.0"><defs><clipPath id="id1"><path d="M 0.484375 0 L 29.515625 0 L 29.515625 29.03125 L 0.484375 29.03125 Z M 0.484375 0 " clip-rule="nonzero"/></clipPath></defs><g clip-path="url(#id1)"><path fill="#ffd600" d="M 0.484375 0 L 29.515625 0 L 29.515625 29.03125 L 0.484375 29.03125 Z M 0.484375 0 " fill-opacity="1" fill-rule="nonzero"/></g><path fill="#000001" d="M 19.464844 21.730469 C 20.023438 22.636719 20.628906 23.507812 21.914062 23.507812 C 22.996094 23.507812 23.558594 22.96875 23.558594 22.226562 C 23.558594 21.339844 22.976562 21.023438 21.789062 20.507812 L 21.136719 20.230469 C 19.257812 19.433594 18.007812 18.433594 18.007812 16.328125 C 18.007812 14.382812 19.496094 12.902344 21.824219 12.902344 C 23.476562 12.902344 24.667969 13.476562 25.527344 14.980469 L 23.5 16.273438 C 23.050781 15.476562 22.570312 15.164062 21.824219 15.164062 C 21.058594 15.164062 20.578125 15.644531 20.578125 16.273438 C 20.578125 17.050781 21.058594 17.367188 22.175781 17.847656 L 22.828125 18.125 C 25.042969 19.070312 26.289062 20.03125 26.289062 22.195312 C 26.289062 24.527344 24.449219 25.804688 21.976562 25.804688 C 19.558594 25.804688 18.183594 24.59375 17.417969 23.089844 Z M 10.121094 21.796875 C 10.53125 22.527344 11.152344 23.089844 12.042969 23.089844 C 12.894531 23.089844 13.386719 22.753906 13.386719 21.441406 L 13.386719 12.902344 L 16.074219 12.902344 L 16.074219 21.855469 C 16.074219 24.570312 14.5 25.804688 12.199219 25.804688 C 10.121094 25.804688 8.621094 24.398438 8.011719 23.089844 Z M 10.121094 21.796875 " fill-opacity="1" fill-rule="nonzero"/></svg>