<svg xmlns="http://www.w3.org/2000/svg" xmlns:xlink="http://www.w3.org/1999/xlink" width="40" zoomAndPan="magnify" viewBox="0 0 30 30.000001" height="40" preserveAspectRatio="xMidYMid meet" version="1.0"><defs><clipPath id="id1"><path d="M 1.917969 0 L 28.046875 0 L 28.046875 29.03125 L 1.917969 29.03125 Z M 1.917969 0 " clip-rule="nonzero"/></clipPath></defs><g clip-path="url(#id1)"><path fill="#5d4037" d="M 28.03125 9.652344 C 28.03125 24.53125 14.980469 29.03125 14.980469 29.03125 C 14.980469 29.03125 1.933594 24.53125 1.933594 9.652344 C 1.933594 7.839844 2.078125 6.316406 2.222656 5.082031 C 2.441406 3.265625 3.675781 1.816406 5.414062 1.378906 C 7.660156 0.726562 11.210938 0 14.980469 0 C 18.75 0 22.304688 0.726562 24.621094 1.378906 C 26.363281 1.816406 27.59375 3.339844 27.8125 5.082031 C 27.882812 6.316406 28.03125 7.910156 28.03125 9.652344 Z M 28.03125 9.652344 " fill-opacity="1" fill-rule="nonzero"/><path fill="#4caf50" d="M 14.980469 2.175781 C 18.535156 2.175781 21.867188 2.902344 24.042969 3.484375 C 24.914062 3.703125 25.492188 4.425781 25.636719 5.371094 C 25.78125 6.75 25.855469 8.203125 25.855469 9.652344 C 25.855469 20.976562 17.519531 25.546875 14.980469 26.636719 C 12.445312 25.476562 4.109375 20.902344 4.109375 9.652344 C 4.109375 8.203125 4.179688 6.75 4.328125 5.371094 C 4.398438 4.425781 5.050781 3.703125 5.921875 3.484375 C 8.09375 2.902344 11.429688 2.175781 14.980469 2.175781 M 14.980469 0 C 11.210938 0 7.660156 0.726562 5.339844 1.378906 C 3.675781 1.816406 2.371094 3.339844 2.222656 5.082031 C 2.078125 6.316406 1.933594 7.910156 1.933594 9.652344 C 1.933594 24.53125 14.980469 29.03125 14.980469 29.03125 C 14.980469 29.03125 28.03125 24.53125 28.03125 9.652344 C 28.03125 7.839844 27.882812 6.316406 27.738281 5.082031 C 27.523438 3.265625 26.289062 1.816406 24.550781 1.378906 C 22.304688 0.726562 18.75 0 14.980469 0 Z M 14.980469 0 " fill-opacity="1" fill-rule="nonzero"/></g><path fill="#dcedc8" d="M 14.257812 17.417969 L 15.707031 17.417969 L 15.707031 23.226562 L 14.257812 23.226562 Z M 14.257812 17.417969 " fill-opacity="1" fill-rule="nonzero"/><path fill="#4caf50" d="M 14.980469 4.355469 C 14.980469 4.355469 10.632812 7.984375 10.632812 13.789062 C 10.632812 17.566406 13.023438 19.960938 14.257812 21.046875 L 14.980469 18.871094 L 15.707031 21.046875 C 16.9375 19.960938 19.332031 17.566406 19.332031 13.789062 C 19.332031 7.984375 14.980469 4.355469 14.980469 4.355469 Z M 14.980469 4.355469 " fill-opacity="1" fill-rule="nonzero"/><path fill="#81c784" d="M 14.980469 4.355469 C 14.980469 4.355469 10.632812 7.984375 10.632812 13.789062 C 10.632812 17.566406 13.023438 19.960938 14.257812 21.046875 L 14.980469 18.871094 Z M 14.980469 4.355469 " fill-opacity="1" fill-rule="nonzero"/></svg>