<svg xmlns="http://www.w3.org/2000/svg" xmlns:xlink="http://www.w3.org/1999/xlink" width="40" zoomAndPan="magnify" viewBox="0 0 30 30.000001" height="40" preserveAspectRatio="xMidYMid meet" version="1.0"><defs><clipPath id="id1"><path d="M 1.828125 0 L 27.957031 0 L 27.957031 29 L 1.828125 29 Z M 1.828125 0 " clip-rule="nonzero"/></clipPath></defs><g clip-path="url(#id1)"><path fill="#8cc84b" d="M 13.6875 0.386719 C 14.40625 -0.0234375 15.320312 -0.0234375 16.023438 0.386719 L 26.742188 6.476562 C 27.410156 6.855469 27.859375 7.609375 27.851562 8.386719 L 27.851562 20.597656 C 27.859375 21.410156 27.363281 22.179688 26.65625 22.550781 L 15.996094 28.613281 C 15.625 28.820312 15.226562 28.917969 14.804688 28.90625 C 14.378906 28.894531 13.988281 28.773438 13.628906 28.546875 L 10.429688 26.683594 C 10.210938 26.550781 9.964844 26.449219 9.8125 26.234375 C 9.949219 26.050781 10.191406 26.027344 10.386719 25.945312 C 10.832031 25.804688 11.238281 25.585938 11.648438 25.351562 C 11.753906 25.28125 11.878906 25.308594 11.976562 25.371094 L 14.707031 26.964844 C 14.902344 27.074219 15.097656 26.925781 15.265625 26.832031 L 25.734375 20.878906 C 25.863281 20.816406 25.933594 20.675781 25.921875 20.535156 L 25.921875 8.441406 C 25.9375 8.277344 25.84375 8.128906 25.699219 8.066406 L 15.066406 2.03125 C 14.925781 1.933594 14.785156 1.933594 14.648438 2.027344 L 4.027344 8.078125 C 3.886719 8.144531 3.785156 8.289062 3.804688 8.453125 L 3.804688 20.542969 C 3.792969 20.6875 3.867188 20.820312 3.996094 20.882812 L 6.835938 22.496094 C 7.367188 22.789062 8.023438 22.949219 8.609375 22.738281 C 8.871094 22.636719 9.082031 22.472656 9.242188 22.238281 C 9.402344 22.003906 9.480469 21.746094 9.480469 21.464844 L 9.484375 9.441406 C 9.46875 9.265625 9.636719 9.117188 9.808594 9.136719 L 11.171875 9.136719 C 11.351562 9.132812 11.492188 9.324219 11.46875 9.503906 L 11.464844 21.597656 C 11.46875 22.671875 11.027344 23.839844 10.042969 24.367188 C 8.828125 25 7.324219 24.867188 6.125 24.257812 L 3.074219 22.558594 C 2.355469 22.199219 1.875 21.417969 1.878906 20.605469 L 1.878906 8.394531 C 1.882812 7.992188 1.984375 7.617188 2.191406 7.269531 C 2.398438 6.921875 2.675781 6.652344 3.027344 6.460938 Z M 16.777344 8.851562 C 18.328125 8.757812 19.988281 8.789062 21.382812 9.558594 C 22.460938 10.148438 23.0625 11.386719 23.082031 12.597656 C 23.050781 12.757812 22.882812 12.851562 22.726562 12.839844 C 22.277344 12.835938 21.828125 12.84375 21.378906 12.835938 C 21.1875 12.84375 21.074219 12.664062 21.050781 12.496094 C 20.921875 11.917969 20.609375 11.34375 20.070312 11.066406 C 19.238281 10.644531 18.277344 10.667969 17.375 10.675781 C 16.710938 10.710938 16.003906 10.769531 15.445312 11.160156 C 15.011719 11.457031 14.882812 12.0625 15.039062 12.535156 C 15.179688 12.882812 15.578125 12.992188 15.902344 13.097656 C 17.769531 13.589844 19.75 13.550781 21.582031 14.1875 C 22.339844 14.453125 23.082031 14.964844 23.34375 15.765625 C 23.683594 16.839844 23.535156 18.121094 22.777344 18.984375 C 22.164062 19.691406 21.269531 20.070312 20.378906 20.289062 C 19.191406 20.554688 17.960938 20.558594 16.753906 20.441406 C 15.621094 20.3125 14.441406 20.011719 13.566406 19.234375 C 12.816406 18.578125 12.453125 17.558594 12.488281 16.574219 C 12.5 16.40625 12.664062 16.292969 12.820312 16.304688 L 14.167969 16.304688 C 14.347656 16.292969 14.480469 16.449219 14.492188 16.621094 C 14.574219 17.164062 14.78125 17.753906 15.257812 18.070312 C 16.179688 18.667969 17.332031 18.625 18.386719 18.644531 C 19.257812 18.605469 20.238281 18.59375 20.953125 18.011719 C 21.328125 17.679688 21.441406 17.125 21.339844 16.644531 C 21.226562 16.242188 20.800781 16.054688 20.441406 15.921875 C 18.597656 15.335938 16.597656 15.546875 14.769531 14.882812 C 14.027344 14.617188 13.3125 14.117188 13.027344 13.351562 C 12.628906 12.265625 12.8125 10.921875 13.648438 10.089844 C 14.457031 9.261719 15.640625 8.941406 16.761719 8.828125 Z M 16.777344 8.851562 " fill-opacity="1" fill-rule="nonzero"/></g></svg>