<svg xmlns="http://www.w3.org/2000/svg" xmlns:xlink="http://www.w3.org/1999/xlink" width="40" zoomAndPan="magnify" viewBox="0 0 30 30.000001" height="40" preserveAspectRatio="xMidYMid meet" version="1.0"><defs><clipPath id="id1"><path d="M 0.484375 1.082031 L 29.515625 1.082031 L 29.515625 27.9375 L 0.484375 27.9375 Z M 0.484375 1.082031 " clip-rule="nonzero"/></clipPath></defs><g clip-path="url(#id1)"><path fill="#00d8ff" d="M 24.335938 9.976562 C 24.035156 9.871094 23.722656 9.773438 23.402344 9.683594 C 23.453125 9.46875 23.503906 9.253906 23.546875 9.046875 C 24.25 5.621094 23.789062 2.863281 22.214844 1.953125 C 20.703125 1.082031 18.230469 1.988281 15.734375 4.160156 C 15.496094 4.371094 15.253906 4.589844 15.011719 4.824219 C 14.851562 4.671875 14.691406 4.523438 14.535156 4.378906 C 11.917969 2.058594 9.292969 1.078125 7.71875 1.992188 C 6.210938 2.863281 5.761719 5.457031 6.398438 8.707031 C 6.460938 9.019531 6.53125 9.339844 6.613281 9.664062 C 6.242188 9.769531 5.882812 9.882812 5.539062 10 C 2.472656 11.070312 0.515625 12.746094 0.515625 14.484375 C 0.515625 16.277344 2.617188 18.078125 5.8125 19.171875 C 6.0625 19.257812 6.324219 19.335938 6.59375 19.414062 C 6.507812 19.765625 6.433594 20.109375 6.367188 20.449219 C 5.761719 23.636719 6.234375 26.171875 7.742188 27.039062 C 9.296875 27.9375 11.90625 27.015625 14.449219 24.792969 C 14.648438 24.617188 14.851562 24.429688 15.054688 24.238281 C 15.316406 24.488281 15.578125 24.726562 15.835938 24.949219 C 18.300781 27.066406 20.730469 27.921875 22.234375 27.054688 C 23.789062 26.152344 24.292969 23.433594 23.636719 20.121094 C 23.589844 19.871094 23.53125 19.609375 23.464844 19.347656 C 23.648438 19.292969 23.828125 19.238281 24.003906 19.179688 C 27.324219 18.078125 29.484375 16.300781 29.484375 14.484375 C 29.484375 12.738281 27.464844 11.054688 24.335938 9.976562 Z M 23.613281 18.007812 C 23.457031 18.058594 23.292969 18.109375 23.128906 18.15625 C 22.761719 17 22.265625 15.765625 21.660156 14.488281 C 22.238281 13.246094 22.714844 12.027344 23.070312 10.875 C 23.367188 10.960938 23.652344 11.050781 23.929688 11.144531 C 26.613281 12.070312 28.246094 13.433594 28.246094 14.484375 C 28.246094 15.601562 26.480469 17.054688 23.613281 18.007812 Z M 22.425781 20.363281 C 22.714844 21.824219 22.753906 23.148438 22.5625 24.183594 C 22.390625 25.113281 22.042969 25.734375 21.613281 25.980469 C 20.703125 26.511719 18.75 25.824219 16.644531 24.011719 C 16.402344 23.804688 16.160156 23.582031 15.914062 23.347656 C 16.730469 22.457031 17.546875 21.417969 18.34375 20.265625 C 19.742188 20.144531 21.066406 19.9375 22.269531 19.664062 C 22.328125 19.902344 22.378906 20.132812 22.425781 20.363281 Z M 10.390625 25.890625 C 9.5 26.207031 8.789062 26.214844 8.359375 25.96875 C 7.445312 25.441406 7.066406 23.40625 7.585938 20.679688 C 7.644531 20.367188 7.714844 20.046875 7.796875 19.71875 C 8.984375 19.980469 10.296875 20.167969 11.699219 20.28125 C 12.5 21.410156 13.339844 22.445312 14.1875 23.351562 C 14.003906 23.53125 13.816406 23.703125 13.632812 23.859375 C 12.511719 24.84375 11.382812 25.542969 10.390625 25.890625 Z M 6.210938 18 C 4.800781 17.515625 3.632812 16.890625 2.832031 16.203125 C 2.113281 15.589844 1.753906 14.980469 1.753906 14.484375 C 1.753906 13.429688 3.324219 12.082031 5.949219 11.167969 C 6.265625 11.058594 6.601562 10.953125 6.945312 10.855469 C 7.308594 12.035156 7.785156 13.265625 8.359375 14.511719 C 7.777344 15.777344 7.292969 17.03125 6.929688 18.222656 C 6.679688 18.152344 6.441406 18.078125 6.210938 18 Z M 7.613281 8.46875 C 7.070312 5.6875 7.429688 3.589844 8.339844 3.0625 C 9.308594 2.5 11.453125 3.300781 13.710938 5.304688 C 13.855469 5.433594 14 5.566406 14.148438 5.707031 C 13.304688 6.609375 12.472656 7.636719 11.679688 8.757812 C 10.316406 8.886719 9.011719 9.089844 7.8125 9.359375 C 7.738281 9.054688 7.671875 8.757812 7.613281 8.46875 Z M 20.109375 11.550781 C 19.824219 11.058594 19.527344 10.574219 19.230469 10.105469 C 20.152344 10.21875 21.039062 10.375 21.871094 10.566406 C 21.621094 11.363281 21.308594 12.203125 20.945312 13.058594 C 20.679688 12.558594 20.402344 12.058594 20.109375 11.550781 Z M 15.015625 6.589844 C 15.585938 7.207031 16.15625 7.898438 16.71875 8.648438 C 16.152344 8.621094 15.578125 8.605469 15 8.605469 C 14.425781 8.605469 13.859375 8.621094 13.292969 8.648438 C 13.855469 7.90625 14.433594 7.214844 15.015625 6.589844 Z M 9.886719 11.5625 C 9.597656 12.058594 9.324219 12.558594 9.066406 13.058594 C 8.707031 12.203125 8.398438 11.363281 8.148438 10.550781 C 8.972656 10.367188 9.855469 10.214844 10.773438 10.101562 C 10.46875 10.574219 10.171875 11.0625 9.886719 11.558594 Z M 10.800781 18.953125 C 9.851562 18.847656 8.957031 18.703125 8.128906 18.523438 C 8.386719 17.699219 8.699219 16.839844 9.070312 15.96875 C 9.328125 16.46875 9.601562 16.96875 9.890625 17.464844 C 10.183594 17.972656 10.488281 18.46875 10.800781 18.953125 Z M 15.046875 22.464844 C 14.460938 21.832031 13.875 21.128906 13.304688 20.378906 C 13.859375 20.398438 14.425781 20.410156 15 20.410156 C 15.589844 20.410156 16.175781 20.398438 16.75 20.371094 C 16.183594 21.136719 15.613281 21.839844 15.046875 22.464844 Z M 20.953125 15.921875 C 21.34375 16.804688 21.667969 17.660156 21.929688 18.472656 C 21.089844 18.664062 20.179688 18.816406 19.226562 18.929688 C 19.527344 18.457031 19.824219 17.964844 20.117188 17.457031 C 20.410156 16.945312 20.691406 16.433594 20.953125 15.921875 Z M 19.042969 16.839844 C 18.589844 17.625 18.125 18.375 17.652344 19.082031 C 16.792969 19.140625 15.90625 19.171875 15 19.171875 C 14.097656 19.171875 13.222656 19.144531 12.375 19.089844 C 11.886719 18.375 11.410156 17.625 10.960938 16.847656 C 10.511719 16.070312 10.097656 15.289062 9.726562 14.511719 C 10.097656 13.734375 10.511719 12.953125 10.957031 12.179688 C 11.40625 11.402344 11.875 10.65625 12.363281 9.941406 C 13.222656 9.878906 14.105469 9.84375 15 9.84375 C 15.898438 9.84375 16.78125 9.878906 17.644531 9.945312 C 18.121094 10.652344 18.589844 11.394531 19.039062 12.171875 C 19.492188 12.957031 19.910156 13.734375 20.289062 14.496094 C 19.910156 15.269531 19.496094 16.054688 19.042969 16.839844 Z M 21.59375 3.023438 C 22.566406 3.582031 22.945312 5.839844 22.332031 8.796875 C 22.296875 8.984375 22.25 9.175781 22.203125 9.371094 C 21 9.09375 19.695312 8.890625 18.332031 8.761719 C 17.535156 7.628906 16.707031 6.597656 15.878906 5.707031 C 16.101562 5.492188 16.328125 5.289062 16.546875 5.09375 C 18.6875 3.234375 20.6875 2.5 21.59375 3.023438 Z M 15 11.898438 C 16.429688 11.898438 17.585938 13.054688 17.585938 14.484375 C 17.585938 15.910156 16.429688 17.070312 15 17.070312 C 13.570312 17.070312 12.414062 15.910156 12.414062 14.484375 C 12.414062 13.054688 13.570312 11.898438 15 11.898438 Z M 15 11.898438 " fill-opacity="1" fill-rule="nonzero"/></g></svg>