<svg xmlns="http://www.w3.org/2000/svg" xmlns:xlink="http://www.w3.org/1999/xlink" width="40" zoomAndPan="magnify" viewBox="0 0 30 30.000001" height="40" preserveAspectRatio="xMidYMid meet" version="1.0"><defs><clipPath id="id1"><path d="M 0.484375 16 L 13 16 L 13 22.128906 L 0.484375 22.128906 Z M 0.484375 16 " clip-rule="nonzero"/></clipPath><clipPath id="id2"><path d="M 18 7 L 29.515625 7 L 29.515625 18 L 18 18 Z M 18 7 " clip-rule="nonzero"/></clipPath><clipPath id="id3"><path d="M 28 19 L 29.515625 19 L 29.515625 21 L 28 21 Z M 28 19 " clip-rule="nonzero"/></clipPath></defs><g clip-path="url(#id1)"><path fill="#00618a" d="M 0.589844 20.8125 L 1.539062 20.8125 L 1.539062 17.070312 L 3.011719 20.335938 C 3.183594 20.726562 3.421875 20.871094 3.886719 20.871094 C 4.351562 20.871094 4.582031 20.730469 4.753906 20.335938 L 6.222656 17.070312 L 6.222656 20.816406 L 7.171875 20.816406 L 7.171875 17.074219 C 7.171875 16.710938 7.027344 16.535156 6.726562 16.441406 C 6.003906 16.21875 5.519531 16.410156 5.300781 16.898438 L 3.859375 20.121094 L 2.460938 16.898438 C 2.253906 16.410156 1.757812 16.214844 1.039062 16.441406 C 0.738281 16.53125 0.589844 16.707031 0.589844 17.074219 Z M 7.960938 17.765625 L 8.910156 17.765625 L 8.910156 19.828125 C 8.902344 19.941406 8.949219 20.203125 9.46875 20.210938 C 9.734375 20.214844 11.515625 20.210938 11.53125 20.210938 L 11.53125 17.753906 L 12.484375 17.753906 C 12.488281 17.753906 12.480469 21.105469 12.484375 21.121094 C 12.488281 21.945312 11.457031 22.125 10.980469 22.140625 L 7.984375 22.140625 L 7.984375 21.5 L 10.984375 21.5 C 11.597656 21.4375 11.523438 21.132812 11.523438 21.03125 L 11.523438 20.78125 L 9.507812 20.78125 C 8.570312 20.773438 7.96875 20.363281 7.964844 19.894531 C 7.960938 19.851562 7.984375 17.785156 7.960938 17.765625 Z M 7.960938 17.765625 " fill-opacity="1" fill-rule="nonzero"/></g><path fill="#e48e00" d="M 13.214844 20.8125 L 15.945312 20.8125 C 16.265625 20.8125 16.574219 20.746094 16.820312 20.632812 C 17.230469 20.441406 17.433594 20.1875 17.433594 19.851562 L 17.433594 19.160156 C 17.433594 18.886719 17.203125 18.628906 16.757812 18.460938 C 16.519531 18.367188 16.226562 18.320312 15.945312 18.320312 L 14.792969 18.320312 C 14.410156 18.320312 14.230469 18.203125 14.183594 17.949219 C 14.175781 17.917969 14.175781 17.894531 14.175781 17.863281 L 14.175781 17.433594 C 14.175781 17.40625 14.175781 17.382812 14.183594 17.351562 C 14.230469 17.160156 14.328125 17.105469 14.667969 17.070312 C 14.695312 17.070312 14.730469 17.066406 14.757812 17.066406 L 17.46875 17.066406 L 17.46875 16.433594 L 14.804688 16.433594 C 14.421875 16.433594 14.21875 16.457031 14.039062 16.511719 C 13.46875 16.6875 13.222656 16.96875 13.222656 17.457031 L 13.222656 18.011719 C 13.222656 18.4375 13.707031 18.800781 14.519531 18.886719 C 14.613281 18.890625 14.703125 18.898438 14.792969 18.898438 L 15.78125 18.898438 C 15.816406 18.898438 15.851562 18.898438 15.878906 18.902344 C 16.179688 18.929688 16.308594 18.984375 16.402344 19.09375 C 16.457031 19.148438 16.472656 19.203125 16.472656 19.261719 L 16.472656 19.816406 C 16.472656 19.882812 16.429688 19.96875 16.335938 20.039062 C 16.253906 20.113281 16.117188 20.160156 15.933594 20.171875 C 15.898438 20.171875 15.871094 20.179688 15.835938 20.179688 L 13.214844 20.179688 Z M 23.355469 19.710938 C 23.355469 20.363281 23.839844 20.726562 24.816406 20.800781 C 24.90625 20.808594 25 20.8125 25.089844 20.8125 L 27.5625 20.8125 L 27.5625 20.179688 L 25.070312 20.179688 C 24.515625 20.179688 24.304688 20.042969 24.304688 19.707031 L 24.304688 16.433594 L 23.355469 16.433594 Z M 18.039062 19.746094 L 18.039062 17.492188 C 18.039062 16.917969 18.441406 16.570312 19.238281 16.460938 C 19.320312 16.449219 19.40625 16.441406 19.492188 16.441406 L 21.296875 16.441406 C 21.382812 16.441406 21.472656 16.449219 21.5625 16.460938 C 22.355469 16.570312 22.757812 16.917969 22.757812 17.492188 L 22.757812 19.746094 C 22.757812 20.210938 22.589844 20.460938 22.195312 20.621094 L 23.128906 21.464844 L 22.027344 21.464844 L 21.269531 20.78125 L 20.507812 20.832031 L 19.492188 20.832031 C 19.320312 20.832031 19.136719 20.804688 18.933594 20.75 C 18.332031 20.585938 18.039062 20.269531 18.039062 19.746094 Z M 19.0625 19.691406 C 19.0625 19.71875 19.074219 19.75 19.082031 19.789062 C 19.136719 20.050781 19.382812 20.195312 19.757812 20.195312 L 20.621094 20.195312 L 19.828125 19.480469 L 20.929688 19.480469 L 21.621094 20.105469 C 21.746094 20.035156 21.832031 19.933594 21.859375 19.800781 C 21.867188 19.769531 21.867188 19.738281 21.867188 19.707031 L 21.867188 17.546875 C 21.867188 17.523438 21.867188 17.488281 21.859375 17.460938 C 21.800781 17.21875 21.558594 17.078125 21.191406 17.078125 L 19.757812 17.078125 C 19.335938 17.078125 19.066406 17.257812 19.066406 17.546875 L 19.066406 19.691406 Z M 19.0625 19.691406 " fill-opacity="1" fill-rule="nonzero"/><g clip-path="url(#id2)"><path fill="#00618a" d="M 28.398438 15.386719 C 27.816406 15.371094 27.371094 15.425781 26.988281 15.585938 C 26.878906 15.628906 26.707031 15.632812 26.6875 15.765625 C 26.75 15.828125 26.757812 15.921875 26.804688 16 C 26.898438 16.144531 27.050781 16.34375 27.1875 16.445312 C 27.335938 16.558594 27.492188 16.679688 27.652344 16.777344 C 27.9375 16.953125 28.257812 17.050781 28.53125 17.226562 C 28.695312 17.328125 28.855469 17.457031 29.011719 17.574219 C 29.089844 17.632812 29.144531 17.722656 29.246094 17.757812 L 29.246094 17.738281 C 29.191406 17.671875 29.179688 17.578125 29.128906 17.507812 L 28.914062 17.292969 C 28.703125 17.011719 28.433594 16.765625 28.148438 16.5625 C 27.921875 16.398438 27.414062 16.179688 27.320312 15.917969 L 27.304688 15.898438 C 27.464844 15.882812 27.652344 15.824219 27.800781 15.785156 C 28.050781 15.714844 28.273438 15.734375 28.53125 15.667969 L 28.878906 15.566406 L 28.878906 15.5 C 28.75 15.367188 28.65625 15.191406 28.515625 15.070312 C 28.144531 14.753906 27.738281 14.4375 27.320312 14.175781 C 27.089844 14.027344 26.800781 13.933594 26.558594 13.808594 C 26.472656 13.769531 26.328125 13.746094 26.273438 13.675781 C 26.144531 13.511719 26.074219 13.304688 25.976562 13.113281 C 25.769531 12.714844 25.5625 12.277344 25.378906 11.855469 C 25.253906 11.566406 25.171875 11.285156 25.015625 11.023438 C 24.261719 9.789062 23.449219 9.039062 22.191406 8.304688 C 21.925781 8.148438 21.605469 8.089844 21.261719 8.007812 L 20.714844 7.972656 C 20.605469 7.929688 20.488281 7.792969 20.382812 7.726562 C 19.96875 7.460938 18.898438 6.890625 18.589844 7.640625 C 18.398438 8.113281 18.882812 8.578125 19.054688 8.820312 C 19.179688 8.988281 19.335938 9.175781 19.421875 9.367188 C 19.480469 9.492188 19.488281 9.617188 19.539062 9.746094 C 19.65625 10.070312 19.761719 10.425781 19.917969 10.726562 C 19.996094 10.878906 20.085938 11.039062 20.183594 11.171875 C 20.246094 11.257812 20.351562 11.292969 20.367188 11.421875 C 20.265625 11.566406 20.257812 11.789062 20.199219 11.96875 C 19.941406 12.785156 20.039062 13.800781 20.417969 14.40625 C 20.53125 14.59375 20.804688 14.992188 21.179688 14.839844 C 21.507812 14.703125 21.433594 14.292969 21.527344 13.925781 C 21.550781 13.84375 21.535156 13.78125 21.578125 13.726562 L 21.578125 13.742188 L 21.878906 14.339844 C 22.097656 14.695312 22.492188 15.066406 22.824219 15.320312 C 22.996094 15.449219 23.132812 15.675781 23.355469 15.75 L 23.355469 15.734375 L 23.335938 15.734375 C 23.292969 15.667969 23.226562 15.636719 23.171875 15.585938 C 23.042969 15.457031 22.898438 15.300781 22.789062 15.152344 C 22.488281 14.742188 22.21875 14.292969 21.976562 13.828125 C 21.859375 13.605469 21.757812 13.359375 21.660156 13.128906 C 21.625 13.042969 21.625 12.910156 21.546875 12.867188 C 21.4375 13.03125 21.28125 13.167969 21.195312 13.363281 C 21.0625 13.675781 21.046875 14.058594 20.996094 14.457031 C 20.96875 14.46875 20.980469 14.460938 20.964844 14.472656 C 20.734375 14.417969 20.652344 14.179688 20.566406 13.976562 C 20.347656 13.460938 20.308594 12.628906 20.5 12.035156 C 20.550781 11.882812 20.773438 11.398438 20.683594 11.257812 C 20.640625 11.117188 20.496094 11.03125 20.417969 10.925781 C 20.320312 10.792969 20.21875 10.613281 20.152344 10.460938 C 19.972656 10.058594 19.890625 9.605469 19.703125 9.199219 C 19.613281 9.007812 19.460938 8.808594 19.339844 8.636719 C 19.199219 8.445312 19.046875 8.304688 18.941406 8.074219 C 18.902344 7.992188 18.851562 7.863281 18.90625 7.777344 C 18.917969 7.722656 18.953125 7.691406 19.007812 7.675781 C 19.101562 7.601562 19.371094 7.703125 19.472656 7.742188 C 19.738281 7.855469 19.960938 7.960938 20.183594 8.109375 C 20.292969 8.179688 20.402344 8.320312 20.535156 8.359375 L 20.683594 8.359375 C 20.917969 8.410156 21.179688 8.375 21.394531 8.441406 C 21.78125 8.558594 22.128906 8.738281 22.441406 8.9375 C 23.398438 9.542969 24.179688 10.402344 24.714844 11.425781 C 24.800781 11.589844 24.839844 11.75 24.914062 11.925781 C 25.066406 12.277344 25.257812 12.640625 25.410156 12.984375 C 25.5625 13.328125 25.710938 13.675781 25.925781 13.964844 C 26.039062 14.113281 26.476562 14.195312 26.671875 14.277344 C 26.8125 14.335938 27.039062 14.398438 27.171875 14.476562 C 27.421875 14.628906 27.664062 14.808594 27.902344 14.976562 C 28.019531 15.058594 28.382812 15.242188 28.398438 15.390625 Z M 28.398438 15.386719 " fill-opacity="1" fill-rule="nonzero"/></g><path fill="#00618a" d="M 20.980469 9.066406 C 20.859375 9.066406 20.773438 9.082031 20.683594 9.101562 L 20.683594 9.117188 L 20.699219 9.117188 C 20.757812 9.238281 20.859375 9.3125 20.933594 9.414062 L 21.097656 9.765625 L 21.113281 9.746094 C 21.21875 9.675781 21.265625 9.558594 21.261719 9.382812 C 21.222656 9.339844 21.214844 9.285156 21.179688 9.234375 C 21.132812 9.164062 21.039062 9.125 20.980469 9.066406 Z M 20.980469 9.066406 " fill-opacity="1" fill-rule="evenodd"/><g clip-path="url(#id3)"><path fill="#e48e00" d="M 28.011719 20.164062 C 28.011719 20.582031 28.339844 20.863281 28.710938 20.863281 C 29.078125 20.863281 29.410156 20.582031 29.410156 20.164062 C 29.410156 19.746094 29.078125 19.464844 28.710938 19.464844 C 28.339844 19.464844 28.011719 19.746094 28.011719 20.164062 Z M 29.253906 20.164062 C 29.253906 20.480469 29.011719 20.71875 28.710938 20.71875 C 28.40625 20.71875 28.167969 20.480469 28.167969 20.164062 C 28.167969 19.847656 28.40625 19.609375 28.710938 19.609375 C 29.011719 19.609375 29.253906 19.847656 29.253906 20.164062 Z M 28.898438 20.5625 L 29.054688 20.5625 L 28.824219 20.210938 C 28.949219 20.199219 29.042969 20.140625 29.042969 19.992188 C 29.042969 19.832031 28.9375 19.765625 28.742188 19.765625 L 28.429688 19.765625 L 28.429688 20.5625 L 28.5625 20.5625 L 28.5625 20.21875 L 28.6875 20.21875 Z M 28.5625 20.105469 L 28.5625 19.875 L 28.71875 19.875 C 28.800781 19.875 28.894531 19.890625 28.894531 19.984375 C 28.894531 20.097656 28.808594 20.105469 28.707031 20.105469 Z M 28.5625 20.105469 " fill-opacity="1" fill-rule="evenodd"/></g></svg>