<svg xmlns="http://www.w3.org/2000/svg" xmlns:xlink="http://www.w3.org/1999/xlink" width="40" zoomAndPan="magnify" viewBox="0 0 30 30.000001" height="40" preserveAspectRatio="xMidYMid meet" version="1.0"><defs><clipPath id="id1"><path d="M 0.484375 4.355469 L 29.515625 4.355469 L 29.515625 24.675781 L 0.484375 24.675781 Z M 0.484375 4.355469 " clip-rule="nonzero"/></clipPath></defs><g clip-path="url(#id1)"><path fill="#2cb0eb" d="M 15.515625 24.601562 C 11.589844 24.601562 9.703125 22.722656 8.324219 21.347656 C 7.816406 20.714844 7.183594 20.246094 6.433594 19.9375 C 5.605469 19.734375 4.492188 19.722656 3.214844 21.394531 C 3.007812 21.664062 2.734375 21.839844 2.402344 21.921875 C 2.070312 22 1.75 21.964844 1.441406 21.816406 C 1.132812 21.667969 0.90625 21.4375 0.761719 21.128906 C 0.617188 20.816406 0.589844 20.496094 0.671875 20.164062 C 1.734375 15.996094 4.542969 13.796875 8.792969 13.796875 C 12.71875 13.796875 14.605469 15.675781 15.984375 17.050781 C 16.492188 17.683594 17.125 18.152344 17.875 18.460938 C 18.703125 18.660156 19.816406 18.675781 21.09375 17.003906 C 21.300781 16.730469 21.574219 16.554688 21.90625 16.476562 C 22.238281 16.398438 22.558594 16.433594 22.867188 16.582031 C 23.175781 16.730469 23.402344 16.960938 23.546875 17.269531 C 23.691406 17.582031 23.71875 17.902344 23.636719 18.234375 C 22.574219 22.398438 19.765625 24.601562 15.515625 24.601562 Z M 6.515625 17.023438 C 6.71875 17.050781 6.921875 17.089844 7.117188 17.140625 C 8.40625 17.546875 9.484375 18.269531 10.351562 19.304688 C 11.601562 20.546875 12.78125 21.71875 15.515625 21.71875 C 16.292969 21.738281 17.054688 21.621094 17.792969 21.375 C 17.589844 21.34375 17.386719 21.308594 17.191406 21.257812 C 15.902344 20.851562 14.824219 20.128906 13.957031 19.09375 C 12.707031 17.847656 11.527344 16.675781 8.792969 16.675781 C 8.015625 16.660156 7.253906 16.777344 6.515625 17.023438 Z M 21.277344 15.238281 C 17.355469 15.238281 15.464844 13.355469 14.085938 11.980469 C 13.578125 11.347656 12.949219 10.878906 12.195312 10.574219 C 11.371094 10.371094 10.257812 10.355469 8.976562 12.027344 C 8.769531 12.300781 8.5 12.476562 8.167969 12.554688 C 7.832031 12.636719 7.511719 12.601562 7.203125 12.453125 C 6.894531 12.300781 6.671875 12.074219 6.527344 11.761719 C 6.382812 11.453125 6.351562 11.128906 6.4375 10.800781 C 7.496094 6.632812 10.304688 4.429688 14.554688 4.429688 C 18.480469 4.429688 20.371094 6.3125 21.75 7.683594 C 22.257812 8.316406 22.886719 8.789062 23.640625 9.09375 C 24.464844 9.296875 25.578125 9.308594 26.859375 7.636719 C 27.066406 7.367188 27.335938 7.191406 27.667969 7.109375 C 28 7.03125 28.324219 7.066406 28.628906 7.214844 C 28.9375 7.363281 29.164062 7.59375 29.308594 7.90625 C 29.453125 8.214844 29.484375 8.535156 29.398438 8.867188 C 28.335938 13.035156 25.53125 15.238281 21.277344 15.238281 Z M 12.28125 7.65625 C 12.484375 7.6875 12.683594 7.726562 12.882812 7.773438 C 14.171875 8.179688 15.25 8.902344 16.117188 9.941406 C 17.308594 11.128906 18.542969 12.355469 21.277344 12.355469 C 22.058594 12.371094 22.816406 12.257812 23.554688 12.007812 C 23.351562 11.980469 23.152344 11.941406 22.953125 11.890625 C 21.664062 11.484375 20.585938 10.765625 19.71875 9.726562 C 18.46875 8.484375 17.292969 7.3125 14.554688 7.3125 C 13.777344 7.296875 13.019531 7.410156 12.28125 7.65625 Z M 12.28125 7.65625 " fill-opacity="1" fill-rule="nonzero"/></g></svg>